<svg width="168" height="199" viewBox="0 0 168 199" fill="none" xmlns="http://www.w3.org/2000/svg">
<g clip-path="url(#clip0_10_318)">
<path d="M119.475 166.997L121.136 199C121.136 199 50.8429 131.896 42.0856 112.262C33.3282 92.6282 49.8127 44.0598 49.8127 44.0598L86.3873 64.2098L119.475 166.997Z" fill="#ED9DA0"/>
<path d="M11.6925 30.6267L0.874555 31.6601C0.874555 31.6601 -4.79198 44.0605 12.7228 45.0934L11.6925 30.6267Z" fill="#ED9DA0"/>
<path d="M11.6925 49.7432L0.874555 50.7773C0.874555 50.7773 -4.79198 63.1777 12.7228 64.2106L11.6925 49.7432Z" fill="#ED9DA0"/>
<path d="M11.6925 70.4106L0.874555 71.444C0.874555 71.444 -4.79198 83.8445 12.7228 84.8773L11.6925 70.4106Z" fill="#ED9DA0"/>
<path d="M14.7833 91.0776L3.96537 92.111C3.96537 92.111 -1.70116 104.511 15.8136 105.544L14.7833 91.0776Z" fill="#ED9DA0"/>
<path d="M6.42578 35.6075H7.24673V13.0535C7.24673 9.5914 8.61791 6.27114 11.0586 3.8231C13.4994 1.37505 16.8097 -0.000244141 20.2614 -0.000244141H67.9018C71.3535 -0.000244141 74.6638 1.37505 77.1045 3.8231C79.5452 6.27114 80.9164 9.5914 80.9164 13.0535V136.786C80.9164 138.501 80.5798 140.198 79.9257 141.782C79.2717 143.366 78.313 144.805 77.1045 146.017C75.896 147.229 74.4613 148.19 72.8822 148.846C71.3032 149.502 69.6109 149.84 67.9018 149.84H20.2614C18.5523 149.84 16.8599 149.502 15.2809 148.846C13.7019 148.19 12.2672 147.229 11.0586 146.017C9.85011 144.805 8.89146 143.366 8.23741 141.782C7.58337 140.198 7.24673 138.501 7.24673 136.786V51.6618H6.42578V35.6075Z" fill="#3F3D56"/>
<path d="M19.7363 3.39625H25.9549C25.669 4.09943 25.5598 4.86235 25.6371 5.61781C25.7143 6.37327 25.9756 7.09808 26.3979 7.72841C26.8202 8.35874 27.3905 8.87523 28.0587 9.2324C28.7269 9.58956 29.4724 9.77645 30.2296 9.77658H57.5228C58.28 9.77649 59.0255 9.58963 59.6938 9.23246C60.362 8.8753 60.9325 8.35879 61.3548 7.72844C61.7772 7.09808 62.0385 6.37322 62.1157 5.61772C62.193 4.86221 62.0839 4.09924 61.7979 3.396H67.6063C70.1839 3.39607 72.6559 4.42312 74.4786 6.25123C76.3012 8.07934 77.3252 10.5588 77.3253 13.1441V136.695C77.3253 139.281 76.3013 141.76 74.4787 143.588C72.656 145.417 70.184 146.444 67.6063 146.444H19.7363C17.1586 146.444 14.6865 145.417 12.8638 143.588C11.0411 141.76 10.0171 139.281 10.0171 136.695V13.1441C10.0171 10.5587 11.0411 8.07916 12.8638 6.25098C14.6865 4.42281 17.1586 3.39575 19.7363 3.39575V3.39625Z" fill="white"/>
<path d="M51.9434 38.0088H35.3997C34.3039 38.0088 33.4155 38.8998 33.4155 39.9989V40.9833C33.4155 42.0824 34.3039 42.9734 35.3997 42.9734H51.9434C53.0393 42.9734 53.9276 42.0824 53.9276 40.9833V39.9989C53.9276 38.8998 53.0393 38.0088 51.9434 38.0088Z" fill="#33B9B9"/>
<path d="M52.9196 59.3416H34.4226C33.3268 59.3416 32.4385 60.2326 32.4385 61.3317V62.316C32.4385 63.4152 33.3268 64.3062 34.4226 64.3062H52.9196C54.0154 64.3062 54.9037 63.4152 54.9037 62.316V61.3317C54.9037 60.2326 54.0154 59.3416 52.9196 59.3416Z" fill="#E5E5E5"/>
<path d="M66.7571 70.0066H20.5852C19.4894 70.0066 18.6011 70.8976 18.6011 71.9967V72.9811C18.6011 74.0802 19.4894 74.9712 20.5852 74.9712H66.7571C67.8529 74.9712 68.7412 74.0802 68.7412 72.9811V71.9967C68.7412 70.8976 67.8529 70.0066 66.7571 70.0066Z" fill="#E5E5E5"/>
<path d="M66.7571 80.6709H20.5852C19.4894 80.6709 18.6011 81.5619 18.6011 82.661V83.6454C18.6011 84.7445 19.4894 85.6355 20.5852 85.6355H66.7571C67.8529 85.6355 68.7412 84.7445 68.7412 83.6454V82.661C68.7412 81.5619 67.8529 80.6709 66.7571 80.6709Z" fill="#E5E5E5"/>
<path d="M168 183.665L164.815 180.02L110.341 117.687L108.281 75.3192L86.6453 39.1512L80.4636 23.6506C80.4636 23.6506 66.0397 25.2007 77.8879 54.6515L82.7816 70.4103C78.3703 79.9403 76.085 90.3208 76.085 100.828V136.939C76.085 145.442 116.484 191.759 121.187 198.834L168 183.665Z" fill="#ED9DA0"/>
<path opacity="0.2" d="M82.1594 42.2161L86.4606 40.0959L86.314 39.7974L82.3399 41.7567L76.3408 25.9797L76.0303 26.0986L82.1594 42.2161Z" fill="black"/>
<path opacity="0.2" d="M0.932262 31.5029L0.817383 31.8157L7.18915 34.1698L7.30403 33.8571L0.932262 31.5029Z" fill="black"/>
<path opacity="0.2" d="M0.93275 50.8378L0.817871 51.1506L7.18964 53.5048L7.30452 53.192L0.93275 50.8378Z" fill="black"/>
<path opacity="0.2" d="M0.93275 71.5065L0.817871 71.8193L7.18964 74.1735L7.30452 73.8607L0.93275 71.5065Z" fill="black"/>
<path opacity="0.2" d="M4.27076 92.1807L4.12695 92.4812L7.22918 93.9746L7.37299 93.6741L4.27076 92.1807Z" fill="black"/>
<path d="M43.6347 128.577C51.57 128.577 58.0028 122.125 58.0028 114.166C58.0028 106.207 51.57 99.7549 43.6347 99.7549C35.6994 99.7549 29.2666 106.207 29.2666 114.166C29.2666 122.125 35.6994 128.577 43.6347 128.577Z" fill="#33B9B9"/>
<path d="M42.096 120.266C41.9214 120.266 41.7485 120.232 41.5871 120.165C41.4258 120.098 41.2793 119.999 41.156 119.875L36.6008 115.058C36.3515 114.808 36.2114 114.469 36.2114 114.115C36.2114 113.761 36.3515 113.422 36.6008 113.172C36.8502 112.922 37.1883 112.781 37.541 112.781C37.8936 112.781 38.2317 112.922 38.4811 113.172L42.096 117.047L48.7777 108.106C49.027 107.856 49.3652 107.715 49.7178 107.715C50.0704 107.715 50.4086 107.856 50.6579 108.106C50.9073 108.356 51.0473 108.695 51.0473 109.049C51.0473 109.403 50.9073 109.742 50.6579 109.992L43.036 119.875C42.9127 119.999 42.7662 120.098 42.6048 120.165C42.4435 120.232 42.2706 120.266 42.096 120.266Z" fill="#F2F2F2"/>
</g>
<defs>
<clipPath id="clip0_10_318">
<rect width="168" height="199" fill="white"/>
</clipPath>
</defs>
</svg>
