<svg width="17" height="17" viewBox="0 0 17 17" fill="none" xmlns="http://www.w3.org/2000/svg">
<g clip-path="url(#clip0_26_486)">
<path d="M12.042 9.91668C12.042 10.1045 11.9674 10.2847 11.8345 10.4176C11.7017 10.5504 11.5215 10.625 11.3337 10.625H5.66699C5.47913 10.625 5.29896 10.5504 5.16612 10.4176C5.03329 10.2847 4.95866 10.1045 4.95866 9.91668C4.95866 9.72882 5.03329 9.54865 5.16612 9.41582C5.29896 9.28298 5.47913 9.20835 5.66699 9.20835H11.3337C11.5215 9.20835 11.7017 9.28298 11.8345 9.41582C11.9674 9.54865 12.042 9.72882 12.042 9.91668ZM9.20866 12.0417H5.66699C5.47913 12.0417 5.29896 12.1163 5.16612 12.2491C5.03329 12.382 4.95866 12.5622 4.95866 12.75C4.95866 12.9379 5.03329 13.118 5.16612 13.2509C5.29896 13.3837 5.47913 13.4584 5.66699 13.4584H9.20866C9.39652 13.4584 9.57669 13.3837 9.70953 13.2509C9.84236 13.118 9.91699 12.9379 9.91699 12.75C9.91699 12.5622 9.84236 12.382 9.70953 12.2491C9.57669 12.1163 9.39652 12.0417 9.20866 12.0417ZM15.5837 7.42689V13.4584C15.5825 14.3973 15.209 15.2975 14.5451 15.9614C13.8811 16.6254 12.981 16.9989 12.042 17H4.95866C4.0197 16.9989 3.11951 16.6254 2.45556 15.9614C1.79162 15.2975 1.41812 14.3973 1.41699 13.4584V3.54168C1.41812 2.60272 1.79162 1.70254 2.45556 1.03859C3.11951 0.374641 4.0197 0.00114106 4.95866 1.63261e-05H8.15678C8.80818 -0.00166025 9.45345 0.125808 10.0553 0.37505C10.6571 0.624292 11.2036 0.990364 11.663 1.4521L14.1309 3.92135C14.5929 4.38052 14.9592 4.9268 15.2085 5.52854C15.4579 6.13028 15.5854 6.77552 15.5837 7.42689ZM10.6615 2.45368C10.4385 2.23776 10.1882 2.052 9.91699 1.90118V4.95835C9.91699 5.14621 9.99162 5.32638 10.1245 5.45922C10.2573 5.59206 10.4375 5.66668 10.6253 5.66668H13.6825C13.5316 5.39553 13.3456 5.14545 13.1293 4.92293L10.6615 2.45368ZM14.167 7.42689C14.167 7.31002 14.1443 7.1981 14.1337 7.08335H10.6253C10.0617 7.08335 9.52124 6.85947 9.12272 6.46095C8.72421 6.06244 8.50033 5.52193 8.50033 4.95835V1.44997C8.38558 1.43935 8.27295 1.41668 8.15678 1.41668H4.95866C4.39507 1.41668 3.85457 1.64057 3.45606 2.03908C3.05754 2.4376 2.83366 2.9781 2.83366 3.54168V13.4584C2.83366 14.0219 3.05754 14.5624 3.45606 14.961C3.85457 15.3595 4.39507 15.5834 4.95866 15.5834H12.042C12.6056 15.5834 13.1461 15.3595 13.5446 14.961C13.9431 14.5624 14.167 14.0219 14.167 13.4584V7.42689Z" fill="#39B9B9"/>
</g>
<defs>
<clipPath id="clip0_26_486">
<rect width="17" height="17" fill="white"/>
</clipPath>
</defs>
</svg>
