<svg width="16" height="16" viewBox="0 0 16 16" fill="none" xmlns="http://www.w3.org/2000/svg">
<g clip-path="url(#clip0_18_388)">
<path d="M1.33333 13.9839V-0.0161133H0V13.9839C0 14.5143 0.210714 15.023 0.585786 15.3981C0.960859 15.7732 1.46957 15.9839 2 15.9839H16V14.6506H2C1.82319 14.6506 1.65362 14.5803 1.5286 14.4553C1.40357 14.3303 1.33333 14.1607 1.33333 13.9839Z" fill="#33B9B9"/>
<path d="M15.0002 2.65088H11.3335L13.1955 4.51288L10.3335 7.37488L9.00017 6.04155L4.1875 10.8542L5.1335 11.8002L9.0035 7.93355L10.3368 9.26688L14.1415 5.46221L16.0002 7.31755V3.65088C16.0002 3.38566 15.8948 3.13131 15.7073 2.94377C15.5197 2.75624 15.2654 2.65088 15.0002 2.65088Z" fill="#33B9B9"/>
</g>
<defs>
<clipPath id="clip0_18_388">
<rect width="16" height="16" fill="white"/>
</clipPath>
</defs>
</svg>
