<svg width="16" height="16" viewBox="0 0 16 16" fill="none" xmlns="http://www.w3.org/2000/svg">
<g clip-path="url(#clip0_17_342)">
<path d="M15.3333 14.6667H2C1.82319 14.6667 1.65362 14.5964 1.5286 14.4714C1.40357 14.3464 1.33333 14.1768 1.33333 14V0.666667C1.33333 0.489856 1.2631 0.320286 1.13807 0.195262C1.01305 0.0702379 0.843478 0 0.666667 0C0.489856 0 0.320286 0.0702379 0.195262 0.195262C0.0702379 0.320286 0 0.489856 0 0.666667L0 14C0 14.5304 0.210714 15.0391 0.585786 15.4142C0.960859 15.7893 1.46957 16 2 16H15.3333C15.5101 16 15.6797 15.9298 15.8047 15.8047C15.9298 15.6797 16 15.5101 16 15.3333C16 15.1565 15.9298 14.987 15.8047 14.8619C15.6797 14.7369 15.5101 14.6667 15.3333 14.6667Z" fill="#33B9B9"/>
<path d="M10.0002 13.334C10.177 13.334 10.3465 13.2637 10.4716 13.1387C10.5966 13.0137 10.6668 12.8441 10.6668 12.6673V8.00065C10.6668 7.82384 10.5966 7.65427 10.4716 7.52925C10.3465 7.40422 10.177 7.33398 10.0002 7.33398C9.82335 7.33398 9.65378 7.40422 9.52876 7.52925C9.40373 7.65427 9.3335 7.82384 9.3335 8.00065V12.6673C9.3335 12.8441 9.40373 13.0137 9.52876 13.1387C9.65378 13.2637 9.82335 13.334 10.0002 13.334Z" fill="#33B9B9"/>
<path d="M4.66667 13.334C4.84348 13.334 5.01304 13.2637 5.13807 13.1387C5.26309 13.0137 5.33333 12.8441 5.33333 12.6673V8.00065C5.33333 7.82384 5.26309 7.65427 5.13807 7.52925C5.01304 7.40422 4.84348 7.33398 4.66667 7.33398C4.48985 7.33398 4.32029 7.40422 4.19526 7.52925C4.07024 7.65427 4 7.82384 4 8.00065V12.6673C4 12.8441 4.07024 13.0137 4.19526 13.1387C4.32029 13.2637 4.48985 13.334 4.66667 13.334Z" fill="#33B9B9"/>
<path d="M12.6667 13.3333C12.8435 13.3333 13.0131 13.2631 13.1381 13.1381C13.2631 13.013 13.3333 12.8435 13.3333 12.6667V4.66667C13.3333 4.48986 13.2631 4.32029 13.1381 4.19526C13.0131 4.07024 12.8435 4 12.6667 4C12.4899 4 12.3203 4.07024 12.1953 4.19526C12.0702 4.32029 12 4.48986 12 4.66667V12.6667C12 12.8435 12.0702 13.013 12.1953 13.1381C12.3203 13.2631 12.4899 13.3333 12.6667 13.3333Z" fill="#33B9B9"/>
<path d="M7.33317 13.3333C7.50999 13.3333 7.67956 13.2631 7.80458 13.1381C7.92961 13.013 7.99985 12.8435 7.99985 12.6667V4.66667C7.99985 4.48986 7.92961 4.32029 7.80458 4.19526C7.67956 4.07024 7.50999 4 7.33317 4C7.15636 4 6.98679 4.07024 6.86177 4.19526C6.73674 4.32029 6.6665 4.48986 6.6665 4.66667V12.6667C6.6665 12.8435 6.73674 13.013 6.86177 13.1381C6.98679 13.2631 7.15636 13.3333 7.33317 13.3333Z" fill="#33B9B9"/>
</g>
<defs>
<clipPath id="clip0_17_342">
<rect width="16" height="16" fill="white"/>
</clipPath>
</defs>
</svg>
