<svg width="17" height="17" viewBox="0 0 17 17" fill="none" xmlns="http://www.w3.org/2000/svg">
<g clip-path="url(#clip0_18_416)">
<path d="M2.125 15.5663C1.93714 15.5663 1.75697 15.4917 1.62413 15.3589C1.49129 15.226 1.41667 15.0459 1.41667 14.858V0H0V14.858C0 15.4216 0.223883 15.9621 0.622398 16.3606C1.02091 16.7591 1.56141 16.983 2.125 16.983H17V15.5663H2.125Z" fill="#33B9B9"/>
<path d="M4.95866 8.5H3.54199V13.4583H4.95866V8.5Z" fill="#33B9B9"/>
<path d="M8.49968 7.08301H7.08301V13.458H8.49968V7.08301Z" fill="#33B9B9"/>
<path d="M12.0417 9.20801H10.625V13.458H12.0417V9.20801Z" fill="#33B9B9"/>
<path d="M15.5837 6.375H14.167V13.4583H15.5837V6.375Z" fill="#33B9B9"/>
<path d="M7.79148 3.12656L11.3331 6.66823L16.7923 1.2091L15.7907 0.20752L11.3331 4.66506L7.79148 1.12339L3.74902 5.16585L4.75061 6.16744L7.79148 3.12656Z" fill="#33B9B9"/>
</g>
<defs>
<clipPath id="clip0_18_416">
<rect width="17" height="17" fill="white"/>
</clipPath>
</defs>
</svg>
