<svg width="185" height="166" viewBox="0 0 185 166" fill="none" xmlns="http://www.w3.org/2000/svg">
<g clip-path="url(#clip0_10_397)">
<path d="M183.377 63.4818C183.311 63.4818 183.246 63.4615 183.192 63.4236L93.4313 0.938264C93.1582 0.748995 92.8336 0.647845 92.5012 0.648412C92.1688 0.648979 91.8446 0.751233 91.5721 0.941432L2.4583 63.423C2.38781 63.4724 2.30058 63.4918 2.21578 63.4769C2.13098 63.4621 2.05556 63.4141 2.00612 63.3437C1.95669 63.2732 1.93727 63.186 1.95215 63.1012C1.96704 63.0165 2.015 62.9411 2.08548 62.8917L91.1993 0.410123C91.5809 0.143884 92.0348 0.000767466 92.5002 3.07801e-06C92.9655 -0.00076131 93.4199 0.140862 93.8023 0.405846L183.563 62.891C183.619 62.9305 183.662 62.9871 183.684 63.0525C183.707 63.1179 183.707 63.1886 183.687 63.2546C183.666 63.3205 183.625 63.378 183.569 63.4189C183.513 63.4598 183.446 63.4818 183.377 63.4818Z" fill="#3F3D56"/>
<path d="M7.55078 65.6968L92.5898 2.69897L178.274 70.1793L96.9713 118.356L52.831 108.299L7.55078 65.6968Z" fill="#E6E6E6"/>
<path d="M56.5567 148.113H14.5453C14.2874 148.114 14.0319 148.063 13.7935 147.965C13.555 147.866 13.3384 147.722 13.1558 147.54C12.9733 147.357 12.8285 147.141 12.7297 146.903C12.6309 146.665 12.5801 146.409 12.5801 146.151C12.5801 145.894 12.6309 145.638 12.7297 145.4C12.8285 145.162 12.9733 144.945 13.1558 144.763C13.3384 144.581 13.555 144.437 13.7935 144.338C14.0319 144.24 14.2874 144.189 14.5453 144.189H56.5567C56.8146 144.189 57.0701 144.24 57.3086 144.338C57.547 144.437 57.7636 144.581 57.9462 144.763C58.1287 144.945 58.2735 145.162 58.3723 145.4C58.4711 145.638 58.5219 145.894 58.5219 146.151C58.5219 146.409 58.4711 146.665 58.3723 146.903C58.2735 147.141 58.1287 147.357 57.9462 147.54C57.7636 147.722 57.547 147.866 57.3086 147.965C57.0701 148.063 56.8146 148.114 56.5567 148.113Z" fill="#33B9B9"/>
<path d="M29.6181 139.678H14.5453C14.2874 139.679 14.0319 139.628 13.7935 139.53C13.555 139.431 13.3384 139.287 13.1558 139.104C12.9733 138.922 12.8285 138.706 12.7297 138.468C12.6309 138.229 12.5801 137.974 12.5801 137.716C12.5801 137.458 12.6309 137.203 12.7297 136.965C12.8285 136.727 12.9733 136.51 13.1558 136.328C13.3384 136.146 13.555 136.001 13.7935 135.903C14.0319 135.805 14.2874 135.754 14.5453 135.754H29.6181C29.876 135.754 30.1315 135.805 30.37 135.903C30.6084 136.001 30.8251 136.146 31.0076 136.328C31.1901 136.51 31.3349 136.727 31.4337 136.965C31.5325 137.203 31.5833 137.458 31.5833 137.716C31.5833 137.974 31.5325 138.229 31.4337 138.468C31.3349 138.706 31.1901 138.922 31.0076 139.104C30.8251 139.287 30.6084 139.431 30.37 139.53C30.1315 139.628 29.876 139.679 29.6181 139.678Z" fill="#33B9B9"/>
<path d="M93.7855 100.786C93.4662 100.786 93.1499 100.724 92.8543 100.603L40.4082 78.851V10.7627C40.4089 10.1606 40.6485 9.58337 41.0744 9.15763C41.5003 8.73189 42.0778 8.4924 42.6801 8.4917H143.294C143.896 8.4924 144.474 8.73189 144.9 9.15763C145.326 9.58337 145.565 10.1606 145.566 10.7627V78.8985L145.468 78.9407L94.745 100.593C94.4412 100.72 94.115 100.786 93.7855 100.786Z" fill="white"/>
<path d="M93.7857 100.948C93.4452 100.948 93.1079 100.882 92.7927 100.754L40.2461 78.9595V10.7628C40.2468 10.1177 40.5035 9.49921 40.9599 9.04306C41.4162 8.58691 42.0349 8.33032 42.6803 8.32959H143.294C143.94 8.33032 144.558 8.58691 145.015 9.04306C145.471 9.49921 145.728 10.1177 145.729 10.7628V79.0057L94.8089 100.742C94.485 100.878 94.1371 100.948 93.7857 100.948ZM40.8952 78.5261L93.0402 100.154C93.5266 100.351 94.0713 100.348 94.5553 100.145L145.079 78.5774V10.7628C145.079 10.2897 144.891 9.83619 144.556 9.50168C144.221 9.16717 143.768 8.979 143.294 8.97844H42.6803C42.2071 8.979 41.7533 9.16717 41.4187 9.50168C41.084 9.83619 40.8958 10.2897 40.8952 10.7628L40.8952 78.5261Z" fill="#3F3D56"/>
<path d="M182.728 62.833H182.663L145.404 78.7363L94.4247 100.495C94.2255 100.579 94.0118 100.623 93.7957 100.624C93.5796 100.625 93.3653 100.584 93.1653 100.502L40.5702 78.6909L2.39523 62.859L2.33691 62.833H2.27193C1.66958 62.8337 1.09209 63.0732 0.666169 63.4989C0.240244 63.9246 0.000668353 64.5019 0 65.104V163.729C0.000669211 164.331 0.240245 164.908 0.666169 165.334C1.09209 165.76 1.66958 165.999 2.27193 166H182.728C183.33 165.999 183.908 165.76 184.334 165.334C184.76 164.908 184.999 164.331 185 163.729V65.104C184.999 64.5019 184.76 63.9246 184.334 63.4989C183.908 63.0732 183.33 62.8337 182.728 62.833ZM184.351 163.729C184.351 164.159 184.18 164.572 183.875 164.876C183.571 165.18 183.158 165.351 182.728 165.351H2.27193C1.84159 165.351 1.42892 165.18 1.12462 164.876C0.820326 164.572 0.649295 164.159 0.649123 163.729V65.104C0.649711 64.6845 0.812494 64.2815 1.10344 63.9792C1.39438 63.6769 1.79096 63.4987 2.21028 63.4819L40.5702 79.3916L92.9155 101.102C93.4822 101.333 94.1171 101.329 94.6811 101.092L145.404 79.4403L182.793 63.4819C183.212 63.4999 183.607 63.6786 183.897 63.9807C184.187 64.2829 184.35 64.6852 184.351 65.104V163.729Z" fill="#3F3D56"/>
<path d="M93.261 81.4782C91.3249 81.4819 89.44 80.856 87.8909 79.6952L87.7948 79.6231L67.5711 64.1456C66.6345 63.4283 65.8484 62.5336 65.2577 61.5126C64.667 60.4916 64.2833 59.3643 64.1285 58.1951C63.9736 57.0258 64.0507 55.8376 64.3553 54.6981C64.6599 53.5587 65.186 52.4903 65.9036 51.5541C66.6213 50.6179 67.5163 49.8322 68.5378 49.2417C69.5592 48.6513 70.6869 48.2678 71.8567 48.113C73.0264 47.9582 74.2151 48.0352 75.3551 48.3397C76.495 48.6441 77.5638 49.1701 78.5004 49.8874L91.5998 59.9276L122.556 19.5735C123.274 18.6375 124.169 17.852 125.191 17.262C126.212 16.6719 127.34 16.2887 128.51 16.1344C129.68 15.98 130.869 16.0575 132.008 16.3624C133.148 16.6673 134.217 17.1936 135.153 17.9113L134.961 18.1725L135.158 17.9151C137.047 19.3661 138.283 21.5067 138.594 23.8674C138.906 26.228 138.268 28.6159 136.821 30.5071L100.409 77.9733C99.5672 79.067 98.4842 79.9522 97.2446 80.5601C96.0049 81.1679 94.6418 81.4821 93.261 81.4782Z" fill="#33B9B9"/>
</g>
<defs>
<clipPath id="clip0_10_397">
<rect width="185" height="166" fill="white"/>
</clipPath>
</defs>
</svg>
