<svg width="92" height="91" viewBox="0 0 92 91" fill="none" xmlns="http://www.w3.org/2000/svg">
<g clip-path="url(#clip0_25_512)">
<path d="M79.5495 90.8343H10.0321C7.17671 90.8343 4.85352 88.4759 4.85352 85.577V23.9505C4.85352 21.0518 7.17671 18.6934 10.0321 18.6934H79.5495C82.4051 18.6934 84.7283 21.0518 84.7283 23.9505V85.577C84.7283 88.4759 82.4051 90.8343 79.5495 90.8343Z" fill="white"/>
<path d="M79.5496 91.0001H10.0322C7.08676 91.0001 4.69043 88.5674 4.69043 85.5771V23.9506C4.69043 20.9605 7.08676 18.5278 10.0322 18.5278H79.5496C82.4952 18.5278 84.8916 20.9605 84.8916 23.9506V85.5771C84.8916 88.5674 82.4952 91.0001 79.5496 91.0001ZM10.0322 18.8591C7.26667 18.8591 5.01678 21.1431 5.01678 23.9506V85.5771C5.01678 88.3846 7.26667 90.6688 10.0322 90.6688H79.5496C82.3152 90.6688 84.5652 88.3846 84.5652 85.5771V23.9506C84.5652 21.1431 82.3152 18.8591 79.5496 18.8591H10.0322Z" fill="#090814"/>
<path d="M68.0842 78.5766H21.4158C20.201 78.5766 19.2129 77.5735 19.2129 76.3403C19.2129 75.7434 19.4422 75.182 19.8586 74.7595C20.2732 74.3368 20.8263 74.104 21.4158 74.104H68.0842C69.2989 74.104 70.2871 75.1071 70.2871 76.3403C70.2871 76.9372 70.0578 77.4987 69.6415 77.9213C69.2271 78.3438 68.6739 78.5766 68.0842 78.5766Z" fill="#D6D6E3"/>
<path d="M57.8035 76.34C57.8035 76.9347 57.5653 77.4731 57.1819 77.8623C56.7984 78.2516 56.268 78.4934 55.6823 78.4934H21.4152C20.2437 78.4934 19.2939 77.5294 19.2939 76.34C19.2939 75.7453 19.5322 75.207 19.9157 74.8177C20.2991 74.4267 20.8295 74.1865 21.4152 74.1865H55.6823C56.8538 74.1865 57.8035 75.1507 57.8035 76.34Z" fill="#39B9B9"/>
<path d="M53.9928 69.7138H35.018C33.3663 69.7138 32.0225 68.3496 32.0225 66.6727V41.4467C32.0225 39.77 33.3663 38.4058 35.018 38.4058L49.355 38.4887L56.9884 46.8616V66.6727C56.9884 68.3496 55.6446 69.7138 53.9928 69.7138Z" fill="#D6D6E3"/>
<path d="M44.5868 48.327H37.3231C37.0077 48.327 36.752 48.0674 36.752 47.7473C36.752 47.4271 37.0077 47.1675 37.3231 47.1675H44.5868C44.9022 47.1675 45.1579 47.4271 45.1579 47.7473C45.1579 48.0674 44.9022 48.327 44.5868 48.327Z" fill="#090814"/>
<path d="M51.7354 52.7347H37.244C36.9286 52.7347 36.6729 52.4751 36.6729 52.155C36.6729 51.8348 36.9286 51.5752 37.244 51.5752H51.7354C52.0508 51.5752 52.3065 51.8348 52.3065 52.155C52.3065 52.4751 52.0508 52.7347 51.7354 52.7347Z" fill="#090814"/>
<path d="M51.7353 56.8265H37.3231C37.0077 56.8265 36.752 56.5669 36.752 56.2468C36.752 55.9266 37.0077 55.667 37.3231 55.667H51.7353C52.0507 55.667 52.3064 55.9266 52.3064 56.2468C52.3064 56.5669 52.0507 56.8265 51.7353 56.8265Z" fill="#090814"/>
<path d="M40.9551 60.9935H37.244C36.9286 60.9935 36.6729 60.7339 36.6729 60.4138C36.6729 60.0936 36.9286 59.834 37.244 59.834H40.9551C41.2705 59.834 41.5262 60.0936 41.5262 60.4138C41.5262 60.7339 41.2705 60.9935 40.9551 60.9935Z" fill="#090814"/>
<path d="M56.9066 47.0599H49.5169C48.6885 47.0599 48.0146 46.3758 48.0146 45.5349V38.4888H48.341V45.5349C48.341 46.1932 48.8685 46.7286 49.5169 46.7286H56.9066V47.0599Z" fill="black"/>
<path d="M44.7525 71.8674C43.2855 71.8674 42.092 70.6557 42.092 69.1665V66.5665H40.2914C39.9154 66.5665 39.5787 66.3538 39.4125 66.0114C39.2463 65.6689 39.2855 65.2684 39.5146 64.9657L44.0455 58.983C44.2295 58.7402 44.5088 58.6006 44.8095 58.6056C45.1112 58.6085 45.387 58.7515 45.5663 58.9979L49.9937 65.0823C50.2237 65.3983 50.2583 65.8125 50.0839 66.1634C49.9094 66.5143 49.5606 66.7322 49.1736 66.7322H47.413V69.1665C47.413 70.6557 46.2195 71.8674 44.7525 71.8674Z" fill="#39B9B9"/>
<path d="M60.3333 46.4397C60.6036 46.4397 60.8228 46.2172 60.8228 45.9428C60.8228 45.6683 60.6036 45.4458 60.3333 45.4458C60.0629 45.4458 59.8438 45.6683 59.8438 45.9428C59.8438 46.2172 60.0629 46.4397 60.3333 46.4397Z" fill="#D6D6E3"/>
<path d="M62.5364 52.8176C62.8068 52.8176 63.0259 52.5951 63.0259 52.3207C63.0259 52.0462 62.8068 51.8237 62.5364 51.8237C62.266 51.8237 62.0469 52.0462 62.0469 52.3207C62.0469 52.5951 62.266 52.8176 62.5364 52.8176Z" fill="#D6D6E3"/>
<path d="M27.9436 48.1795C28.214 48.1795 28.4332 47.957 28.4332 47.6825C28.4332 47.408 28.214 47.1855 27.9436 47.1855C27.6733 47.1855 27.4541 47.408 27.4541 47.6825C27.4541 47.957 27.6733 48.1795 27.9436 48.1795Z" fill="#D6D6E3"/>
<path d="M28.4329 57.7869C28.7032 57.7869 28.9224 57.5644 28.9224 57.2899C28.9224 57.0155 28.7032 56.793 28.4329 56.793C28.1625 56.793 27.9434 57.0155 27.9434 57.2899C27.9434 57.5644 28.1625 57.7869 28.4329 57.7869Z" fill="#D6D6E3"/>
<path d="M27.9436 65.2415C28.214 65.2415 28.4332 65.019 28.4332 64.7445C28.4332 64.4701 28.214 64.2476 27.9436 64.2476C27.6733 64.2476 27.4541 64.4701 27.4541 64.7445C27.4541 65.019 27.6733 65.2415 27.9436 65.2415Z" fill="#D6D6E3"/>
<path d="M60.2522 65.2415C60.5226 65.2415 60.7418 65.019 60.7418 64.7445C60.7418 64.4701 60.5226 64.2476 60.2522 64.2476C59.9819 64.2476 59.7627 64.4701 59.7627 64.7445C59.7627 65.019 59.9819 65.2415 60.2522 65.2415Z" fill="#D6D6E3"/>
<path d="M60.2522 57.7869C60.5226 57.7869 60.7418 57.5644 60.7418 57.2899C60.7418 57.0155 60.5226 56.793 60.2522 56.793C59.9819 56.793 59.7627 57.0155 59.7627 57.2899C59.7627 57.5644 59.9819 57.7869 60.2522 57.7869Z" fill="#D6D6E3"/>
<path d="M4.02246 16.6414C3.32928 16.6414 2.71976 16.1371 2.58654 15.4394L0.0268701 2.0369C-0.0553553 1.60627 0.0531637 1.16351 0.32454 0.822182C0.595756 0.481013 0.999076 0.279772 1.43108 0.270391L13.8003 0.000397438C14.5226 -0.0162645 15.1349 0.492659 15.2684 1.20816L17.6944 14.2056C17.7728 14.6262 17.6687 15.0606 17.4085 15.3975C17.1484 15.7343 16.7579 15.9409 16.337 15.964L4.1015 16.6391C4.07505 16.6405 4.04859 16.6414 4.02246 16.6414Z" fill="#D6D6E3"/>
<path d="M3.22168 14.4691L5.91409 7.09766L10.4014 10.4935L11.87 9.00264L17.0101 14.3863L3.22168 14.4691Z" fill="#39B9B9"/>
<path d="M11.5441 6.43545C10.8693 6.43545 10.3203 5.87815 10.3203 5.19307C10.3203 4.50798 10.8693 3.95068 11.5441 3.95068C12.219 3.95068 12.768 4.50798 12.768 5.19307C12.768 5.87815 12.219 6.43545 11.5441 6.43545Z" fill="#39B9B9"/>
<path d="M4.48035 67.2672C4.09472 67.2672 3.71753 67.1527 3.38751 66.931C2.93655 66.6279 2.63234 66.1639 2.53131 65.6246L0.0592881 52.434C-0.141973 51.3595 0.523321 50.3288 1.57393 50.0874L12.6482 47.5408C13.1738 47.4203 13.7121 47.5167 14.1646 47.8124C14.6175 48.1085 14.9268 48.5664 15.0357 49.1017L17.7301 62.3528C17.9497 63.4326 17.2648 64.501 16.2035 64.7346L4.90661 67.2204C4.76479 67.2517 4.62201 67.2672 4.48035 67.2672Z" fill="#D6D6E3"/>
<path d="M3.62919 55.3853C3.35957 55.3853 3.11974 55.1907 3.06843 54.9118C3.01043 54.597 3.21488 54.2942 3.52497 54.2355L12.478 52.5375C12.7879 52.4779 13.0862 52.6862 13.1442 53.001C13.2023 53.3158 12.9978 53.6186 12.6877 53.6774L3.73468 55.3753C3.69931 55.3821 3.66393 55.3853 3.62919 55.3853Z" fill="#090814"/>
<path d="M4.44582 58.8639C4.18735 58.8639 3.95326 58.6847 3.89064 58.4183C3.81765 58.1069 4.00712 57.7942 4.31403 57.7199L12.7418 55.6828C13.0484 55.609 13.3565 55.801 13.4298 56.1126C13.5027 56.424 13.3133 56.7367 13.0064 56.8109L4.57856 58.8481C4.5341 58.8588 4.48964 58.8639 4.44582 58.8639Z" fill="#090814"/>
<path d="M5.01587 62.2298C4.75182 62.2298 4.51471 62.0428 4.45782 61.7701C4.39248 61.4567 4.5896 61.149 4.89811 61.0827L10.6478 59.8466C10.9581 59.7805 11.2598 59.9804 11.3249 60.2936C11.3903 60.6069 11.1931 60.9146 10.8846 60.981L5.1349 62.217C5.09491 62.2256 5.05507 62.2298 5.01587 62.2298Z" fill="#090814"/>
<path d="M87.8135 26.6862C87.712 26.6862 87.6093 26.6781 87.5062 26.6618L76.0868 24.843C75.5523 24.7578 75.0857 24.4643 74.7728 24.0164C74.4598 23.5686 74.3411 23.0244 74.4384 22.4845L76.8207 9.27687C77.0152 8.2011 78.0011 7.48512 79.0674 7.64284L90.301 9.32378C90.8337 9.40353 91.3017 9.69083 91.6186 10.1328C91.9357 10.5746 92.0615 11.1149 91.9727 11.6541L89.7764 24.9996C89.6148 25.9825 88.7672 26.6862 87.8135 26.6862Z" fill="#D6D6E3"/>
<path d="M88.2618 15.0715C88.2271 15.0715 88.1919 15.0682 88.1565 15.0614L79.2028 13.3659C78.8927 13.3072 78.6883 13.0045 78.7461 12.6897C78.8038 12.3749 79.1013 12.1661 79.4122 12.2261L88.3659 13.9216C88.676 13.9803 88.8804 14.283 88.8226 14.5978C88.7714 14.8767 88.5314 15.0715 88.2618 15.0715Z" fill="#090814"/>
<path d="M87.417 18.1057C87.3912 18.1057 87.3653 18.1041 87.339 18.1003L78.7548 16.9136C78.4423 16.8704 78.2235 16.5783 78.266 16.2609C78.3087 15.9435 78.5975 15.7212 78.909 15.7647L87.4933 16.9515C87.8058 16.9946 88.0246 17.2868 87.982 17.6042C87.943 17.8949 87.6981 18.1057 87.417 18.1057Z" fill="#090814"/>
<path d="M83.9713 21.2207C83.9411 21.2207 83.9103 21.2181 83.8794 21.2131L78.0776 20.26C77.7662 20.2088 77.5547 19.911 77.6051 19.5949C77.6556 19.2788 77.9469 19.0648 78.2602 19.1153L84.062 20.0684C84.3734 20.1195 84.5848 20.4174 84.5345 20.7335C84.4891 21.0182 84.2467 21.2207 83.9713 21.2207Z" fill="#090814"/>
</g>
<defs>
<clipPath id="clip0_25_512">
<rect width="92" height="91" fill="white"/>
</clipPath>
</defs>
</svg>
