<svg width="17" height="17" viewBox="0 0 17 17" fill="none" xmlns="http://www.w3.org/2000/svg">
<g clip-path="url(#clip0_22_370)">
<path d="M6.375 8.5C7.21557 8.5 8.03727 8.25074 8.73617 7.78375C9.43508 7.31675 9.97982 6.65299 10.3015 5.87641C10.6232 5.09982 10.7073 4.24529 10.5433 3.42087C10.3794 2.59645 9.97458 1.83917 9.3802 1.2448C8.78583 0.650425 8.02855 0.245652 7.20413 0.0816645C6.37971 -0.0823227 5.52518 0.00184147 4.7486 0.323514C3.97201 0.645186 3.30825 1.18992 2.84125 1.88883C2.37426 2.58774 2.125 3.40943 2.125 4.25C2.12613 5.37683 2.57425 6.45718 3.37104 7.25396C4.16782 8.05075 5.24818 8.49888 6.375 8.5ZM6.375 1.41667C6.93538 1.41667 7.48318 1.58284 7.94912 1.89417C8.41505 2.2055 8.77821 2.64801 8.99266 3.16573C9.20711 3.68346 9.26322 4.25314 9.15389 4.80276C9.04457 5.35237 8.77472 5.85722 8.37847 6.25347C7.98222 6.64972 7.47737 6.91957 6.92776 7.02889C6.37814 7.13822 5.80845 7.08211 5.29073 6.86766C4.77301 6.65321 4.3305 6.29006 4.01917 5.82412C3.70784 5.35818 3.54167 4.81038 3.54167 4.25C3.54167 3.49856 3.84018 2.77789 4.37153 2.24653C4.90288 1.71518 5.62355 1.41667 6.375 1.41667Z" fill="white"/>
<path d="M14.8747 7.083V4.95801H13.458V7.083H11.333V8.49967H13.458V10.6247H14.8747V8.49967H16.9997V7.083H14.8747Z" fill="white"/>
<path d="M9.23879 9.91699H3.51121C2.58032 9.91812 1.68789 10.2884 1.02965 10.9466C0.371416 11.6049 0.00112471 12.4973 0 13.4282L0 17.0003H1.41667V13.4282C1.41723 12.8729 1.63808 12.3404 2.03077 11.9478C2.42345 11.5551 2.95587 11.3342 3.51121 11.3337H9.23879C9.79413 11.3342 10.3266 11.5551 10.7192 11.9478C11.1119 12.3404 11.3328 12.8729 11.3333 13.4282V17.0003H12.75V13.4282C12.7489 12.4973 12.3786 11.6049 11.7203 10.9466C11.0621 10.2884 10.1697 9.91812 9.23879 9.91699Z" fill="white"/>
</g>
<defs>
<clipPath id="clip0_22_370">
<rect width="17" height="17" fill="white"/>
</clipPath>
</defs>
</svg>
