<svg width="17" height="17" viewBox="0 0 17 17" fill="none" xmlns="http://www.w3.org/2000/svg">
<g clip-path="url(#clip0_25_671)">
<path d="M14.875 17.0003H13.4583V13.4282C13.4578 12.8729 13.2369 12.3404 12.8442 11.9478C12.4516 11.5551 11.9191 11.3342 11.3638 11.3337H5.63621C5.08087 11.3342 4.54845 11.5551 4.15577 11.9478C3.76308 12.3404 3.54223 12.8729 3.54167 13.4282V17.0003H2.125V13.4282C2.12612 12.4973 2.49642 11.6049 3.15465 10.9466C3.81289 10.2884 4.70532 9.91812 5.63621 9.91699H11.3638C12.2947 9.91812 13.1871 10.2884 13.8453 10.9466C14.5036 11.6049 14.8739 12.4973 14.875 13.4282V17.0003Z" fill="#33B9B9"/>
<path d="M8.5 8.5C7.65943 8.5 6.83774 8.25074 6.13883 7.78375C5.43992 7.31675 4.89519 6.65299 4.57351 5.87641C4.25184 5.09982 4.16768 4.24529 4.33166 3.42087C4.49565 2.59645 4.90043 1.83917 5.4948 1.2448C6.08917 0.650425 6.84645 0.245652 7.67087 0.0816645C8.49529 -0.0823227 9.34982 0.00184147 10.1264 0.323514C10.903 0.645186 11.5668 1.18992 12.0337 1.88883C12.5007 2.58774 12.75 3.40943 12.75 4.25C12.7489 5.37683 12.3007 6.45718 11.504 7.25396C10.7072 8.05075 9.62683 8.49888 8.5 8.5ZM8.5 1.41667C7.93962 1.41667 7.39183 1.58284 6.92589 1.89417C6.45995 2.2055 6.09679 2.64801 5.88234 3.16573C5.66789 3.68346 5.61179 4.25314 5.72111 4.80276C5.83044 5.35237 6.10028 5.85722 6.49653 6.25347C6.89278 6.64972 7.39763 6.91957 7.94725 7.02889C8.49686 7.13822 9.06655 7.08211 9.58427 6.86766C10.102 6.65321 10.5445 6.29006 10.8558 5.82412C11.1672 5.35818 11.3333 4.81038 11.3333 4.25C11.3333 3.49856 11.0348 2.77789 10.5035 2.24653C9.97212 1.71518 9.25145 1.41667 8.5 1.41667Z" fill="#33B9B9"/>
</g>
<defs>
<clipPath id="clip0_25_671">
<rect width="17" height="17" fill="white"/>
</clipPath>
</defs>
</svg>
